{
  "accessors": [
    {
      "bufferView": 2,
      "componentType": 5126,
      "count": 47900,
      "max": [
        244.00498962402344,
        199.61460876464844,
        290.91299438476562
      ],
      "min": [
        -371.1070556640625,
        -375.61712646484375,
        -318.98342895507812
      ],
      "type": "VEC3"
    },
    {
      "bufferView": 2,
      "byteOffset": 574800,
      "componentType": 5126,
      "count": 47900,
      "max": [
        0.99997103214263916,
        0.99999988079071045,
        0.99999570846557617
      ],
      "min": [
        -0.99999392032623291,
        -0.99999696016311646,
        -0.99999052286148071
      ],
      "type": "VEC3"
    },
    {
      "bufferView": 3,
      "componentType": 5126,
      "count": 47900,
      "max": [
        0.99997437000274658,
        0.99999827146530151,
        0.99999797344207764,
        1
      ],
      "min": [
        -0.99899017810821533,
        -0.99999898672103882,
        -0.99999904632568359,
        1
      ],
      "type": "VEC4"
    },
    {
      "bufferView": 1,
      "componentType": 5126,
      "count": 47900,
      "max": [
        0.98454499244689941,
        0.99770200252532959
      ],
      "min": [
        0.0022980000358074903,
        0.0020779999904334545
      ],
      "type": "VEC2"
    },
    {
      "bufferView": 0,
      "componentType": 5125,
      "count": 269964,
      "max": [
        47899
      ],
      "min": [
        0
      ],
      "type": "SCALAR"
    }
  ],
  "asset": {
    "extras": {
      "author": "Kevin Shain (https://sketchfab.com/Laserdesign)",
      "license": "CC-BY-NC-4.0 (http://creativecommons.org/licenses/by-nc/4.0/)",
      "source": "https://sketchfab.com/3d-models/lucy-dog-color-3d-scan-b2bb780f853e457f964c785a44780d10",
      "title": "Lucy Dog Color 3D Scan"
    },
    "generator": "Sketchfab-6.46.0",
    "version": "2.0"
  },
  "bufferViews": [
    {
      "buffer": 0,
      "byteLength": 1079856,
      "byteOffset": 0,
      "name": "floatBufferViews",
      "target": 34963
    },
    {
      "buffer": 0,
      "byteLength": 383200,
      "byteOffset": 1079856,
      "byteStride": 8,
      "name": "floatBufferViews",
      "target": 34962
    },
    {
      "buffer": 0,
      "byteLength": 1149600,
      "byteOffset": 1463056,
      "byteStride": 12,
      "name": "floatBufferViews",
      "target": 34962
    },
    {
      "buffer": 0,
      "byteLength": 766400,
      "byteOffset": 2612656,
      "byteStride": 16,
      "name": "floatBufferViews",
      "target": 34962
    }
  ],
  "buffers": [
    {
      "byteLength": 3379056,
      "uri": "scene.bin"
    }
  ],
  "extensionsRequired": [
    "KHR_materials_pbrSpecularGlossiness"
  ],
  "extensionsUsed": [
    "KHR_materials_pbrSpecularGlossiness"
  ],
  "images": [
    {
      "uri": "textures/material_0_diffuse.jpeg"
    }
  ],
  "materials": [
    {
      "doubleSided": true,
      "extensions": {
        "KHR_materials_pbrSpecularGlossiness": {
          "diffuseFactor": [
            1,
            1,
            1,
            1
          ],
          "diffuseTexture": {
            "index": 0,
            "texCoord": 0
          },
          "glossinessFactor": 0.44340701219512191,
          "specularFactor": [
            0,
            0,
            0
          ]
        }
      },
      "name": "material_0"
    }
  ],
  "meshes": [
    {
      "primitives": [
        {
          "attributes": {
            "NORMAL": 1,
            "POSITION": 0,
            "TANGENT": 2,
            "TEXCOORD_0": 3
          },
          "indices": 4,
          "material": 0,
          "mode": 4
        }
      ]
    }
  ],
  "nodes": [
    {
      "children": [
        1
      ],
      "name": "RootNode (gltf orientation matrix)",
      "rotation": [
        -0.70710678118654746,
        -0,
        -0,
        0.70710678118654757
      ]
    },
    {
      "children": [
        2
      ],
      "matrix": [
        1,
        0,
        0,
        0,
        0,
        0.018298909068107605,
        -0.99983257055282593,
        0,
        0,
        0.99983257055282593,
        0.018298909068107605,
        0,
        0,
        -72.358955383300781,
        -101.76355743408203,
        1
      ],
      "name": "RootNode (model correction matrix)"
    },
    {
      "children": [
        3
      ],
      "name": "Lucy Full Color mm.obj.cleaner.materialmerger.gles"
    },
    {
      "mesh": 0,
      "name": ""
    }
  ],
  "samplers": [
    {
      "magFilter": 9729,
      "minFilter": 9987,
      "wrapS": 10497,
      "wrapT": 10497
    }
  ],
  "scene": 0,
  "scenes": [
    {
      "name": "OSG_Scene",
      "nodes": [
        0
      ]
    }
  ],
  "textures": [
    {
      "sampler": 0,
      "source": 0
    }
  ]
}

